<?xml version="1.0" encoding="utf-8"?>
<!-- Generator: Adobe Illustrator 19.0.0, SVG Export Plug-In . SVG Version: 6.00 Build 0)  -->
<svg version="1.1" id="图层_1" xmlns="http://www.w3.org/2000/svg" xmlns:xlink="http://www.w3.org/1999/xlink" x="0px" y="0px"
	 viewBox="0 0 20 20" style="enable-background:new 0 0 20 20;" xml:space="preserve">
<path id="XMLID_1_" d="M2.5,3.3l14.1,14.1c0.2,0.2,0.6,0.2,0.8,0c0.2-0.2,0.2-0.6,0-0.8L3.3,2.5c-0.2-0.2-0.6-0.2-0.8,0
	C2.3,2.8,2.3,3.1,2.5,3.3z"/>
<path id="XMLID_5_" d="M16.7,2.5L2.5,16.7c-0.2,0.2-0.2,0.6,0,0.8c0.2,0.2,0.6,0.2,0.8,0L17.5,3.3c0.2-0.2,0.2-0.6,0-0.8
	C17.2,2.3,16.9,2.3,16.7,2.5z"/>
</svg>
