<?xml version="1.0" encoding="UTF-8" standalone="no"?>
<svg width="315px" height="127px" viewBox="0 0 315 127" version="1.1" xmlns="http://www.w3.org/2000/svg" xmlns:xlink="http://www.w3.org/1999/xlink">
    <!-- Generator: Sketch 40.2 (33826) - http://www.bohemiancoding.com/sketch -->
    <title>logo</title>
    <desc>Created with Sketch.</desc>
    <defs></defs>
    <g id="登录注册" stroke="none" stroke-width="1" fill="none" fill-rule="evenodd">
        <g id="logo" fill="#FFFFFF">
            <g id="Page-1-Copy" transform="translate(4.000000, 105.000000)">
                <path d="M259.299209,4.53431579 C259.126809,5.11817544 258.971228,5.65010526 258.814246,6.18203509 C258.578772,6.98063158 258.341897,7.78063158 258.106424,8.57922807 C257.863942,9.39607018 257.622862,10.2129123 257.38038,11.0297544 C257.1393,11.8465965 256.894015,12.6620351 256.654337,13.4788772 C256.414659,14.2957193 256.179185,15.1153684 255.939507,15.9322105 C255.755894,16.5567719 255.57228,17.1799298 255.381659,17.8016842 C255.328397,17.9813333 255.185431,18.0150175 255.011629,18.010807 C254.850442,18.008 254.757934,17.9602807 254.711681,17.7960702 C254.494428,17.0199298 254.27157,16.245193 254.047309,15.4718596 C253.856688,14.8122105 253.663263,14.1525614 253.472642,13.4943158 C253.263799,12.7729123 253.054957,12.0515088 252.846114,11.3301053 C252.52374,10.2129123 252.19716,9.0957193 251.878991,7.97712281 C251.60287,7.00729825 251.340766,6.03326316 251.064645,5.06484211 C250.868417,4.37712281 250.652566,3.69642105 250.460543,3.00729825 C250.410085,2.82484211 250.26011,2.58063158 250.564264,2.46694737 C250.928687,2.33221053 251.336561,2.46414035 251.41365,2.72940351 C251.709394,3.73852632 251.999531,4.75045614 252.291069,5.76238596 C252.612042,6.8725614 252.933015,7.98133333 253.249783,9.09150877 C253.525904,10.0613333 253.792213,11.0339649 254.069735,12.002386 C254.264561,12.6901053 254.470601,13.373614 254.669632,14.0599298 C254.80559,14.5301053 254.938744,15.0030877 255.071899,15.4746667 C255.095727,15.4746667 255.119554,15.4760702 255.143382,15.4774737 C255.261119,15.0788772 255.378856,14.6816842 255.497994,14.2830877 C255.779721,13.3357193 256.067055,12.3897544 256.344577,11.4409825 C256.584256,10.6227368 256.811319,9.80168421 257.048195,8.98484211 C257.27666,8.20168421 257.510732,7.42133333 257.742,6.63957895 C257.987285,5.80589474 258.233972,4.97080702 258.477855,4.1357193 C258.634837,3.59957895 258.786213,3.06203509 258.941794,2.52589474 C258.997859,2.33080702 259.149235,2.24098246 259.335651,2.24098246 C259.520666,2.24238596 259.652419,2.32940351 259.711288,2.5357193 C260.035064,3.6725614 260.368651,4.80519298 260.706444,5.93782456 C260.976958,6.85010526 261.26289,7.75957895 261.533404,8.67185965 C261.850172,9.74414035 262.154325,10.8192281 262.46829,11.8915088 C262.698157,12.6732632 262.936434,13.4522105 263.170505,14.2325614 C263.264415,14.5483509 263.35552,14.8655439 263.453634,15.1799298 C263.481667,15.2669474 263.532125,15.3455439 263.603608,15.4901053 C263.78582,14.8725614 263.949811,14.3322105 264.10399,13.7890526 C264.303021,13.0844912 264.490839,12.3757193 264.68987,11.6711579 C264.898713,10.9301053 265.114563,10.1932632 265.327611,9.45361404 C265.574297,8.60168421 265.825189,7.74975439 266.066269,6.89501754 C266.307349,6.04168421 266.538617,5.18414035 266.775493,4.328 C266.925467,3.79045614 267.06563,3.24870175 267.243636,2.72098246 C267.282882,2.60449123 267.463692,2.53431579 267.584232,2.45010526 C267.609461,2.43326316 267.655715,2.44729825 267.692157,2.44729825 C268.327095,2.43747368 268.362135,2.49922807 268.184129,3.10133333 C267.811296,4.36729825 267.456684,5.63747368 267.090859,6.90624561 C266.81614,7.85642105 266.531609,8.80378947 266.259693,9.75536842 C266.014409,10.6087018 265.784542,11.4662456 265.540658,12.3195789 C265.340226,13.0143158 265.124375,13.7048421 264.923942,14.3995789 C264.723509,15.0943158 264.532888,15.7932632 264.338062,16.4894035 C264.220325,16.9132632 264.105391,17.3371228 263.979245,17.7581754 C263.932991,17.9153684 263.844689,18.0122105 263.645657,18.0150175 C263.43261,18.0178246 263.316275,17.9420351 263.26021,17.7511579 C263.065383,17.0929123 262.87336,16.4332632 262.679936,15.773614 C262.440257,14.965193 262.200579,14.1581754 261.962302,13.3511579 C261.721222,12.5329123 261.482945,11.7160702 261.241865,10.8992281 C261.003589,10.090807 260.759705,9.28378947 260.52283,8.47536842 C260.278947,7.65010526 260.042072,6.82203509 259.800992,5.99536842 C259.680452,5.58273684 259.55851,5.17010526 259.432364,4.75887719 C259.412741,4.69431579 259.363684,4.64098246 259.299209,4.53431579 L259.299209,4.53431579 Z" id="Fill-1"></path>
                <path d="M294.357288,15.7950877 C294.362895,15.6715789 294.372706,15.5480702 294.372706,15.4245614 C294.374108,11.3403509 294.374108,7.25754386 294.374108,3.17333333 L294.374108,3.0077193 C294.375509,2.51789474 294.644622,2.31157895 295.114167,2.47438596 C295.224896,2.51368421 295.303387,2.66807018 295.376272,2.78175439 C295.405706,2.82807018 295.38328,2.90807018 295.38328,2.97263158 L295.38328,17.4091228 C295.38328,17.4821053 295.405706,17.5677193 295.376272,17.6266667 C295.311797,17.7585965 295.241715,17.9480702 295.13379,17.9817544 C294.974004,18.0322807 294.770768,18.0757895 294.613786,17.8708772 C293.594802,16.5459649 292.556196,15.2364912 291.540016,13.9101754 C289.92534,11.8049123 288.321878,9.68982456 286.715612,7.57754386 C285.971348,6.59789474 285.234092,5.61403509 284.491229,4.63157895 C284.400123,4.5122807 284.303411,4.39719298 284.209502,4.28070175 C284.184272,4.28912281 284.160445,4.29614035 284.135215,4.3045614 L284.135215,4.61894737 L284.135215,17.2294737 C284.135215,17.7459649 283.8633,17.9438596 283.367123,17.7684211 C283.276017,17.7347368 283.201731,17.6112281 283.152674,17.5129825 C283.119035,17.445614 283.142863,17.3501754 283.142863,17.2673684 L283.142863,2.77614035 C283.142863,2.56561404 283.103617,2.33684211 283.386746,2.25964912 C283.648851,2.18807018 283.853488,2.23157895 284.034298,2.47017544 C285.4135,4.28210526 286.802513,6.08701754 288.188723,7.89333333 C289.485229,9.5845614 290.783137,11.2729825 292.079643,12.9642105 C292.749621,13.8385965 293.416796,14.7157895 294.086774,15.5901754 C294.148446,15.6729825 294.222732,15.7445614 294.291412,15.8217544 C294.313838,15.8133333 294.334862,15.8035088 294.357288,15.7950877" id="Fill-3"></path>
                <path d="M226.553676,17.0276491 C230.290416,17.0795789 233.480521,14.0115088 233.494538,10.1799298 C233.508554,6.39887719 230.504865,3.23677193 226.633569,3.19607018 C222.800116,3.15536842 219.698314,6.23466667 219.657666,10.0858947 C219.617019,13.8501053 222.678175,17.0458947 226.553676,17.0276491 M226.543865,18.0072982 C222.146958,17.9525614 218.686338,14.5630877 218.694748,10.1139649 C218.703158,5.72940351 222.162376,2.22203509 226.604135,2.24168421 C231.037484,2.25992982 234.463063,5.76729825 234.457456,10.1448421 C234.45185,14.6094035 230.940771,17.9862456 226.543865,18.0072982" id="Fill-5"></path>
                <path d="M270.919546,12.6687719 L278.48273,12.6687719 C278.1127,11.8070175 277.756687,10.9859649 277.407682,10.1621053 C276.55409,8.14947368 275.704704,6.1354386 274.849711,4.12280702 C274.824481,4.06245614 274.771219,4.01333333 274.731974,3.96 C274.689925,4.01333333 274.63386,4.05964912 274.607229,4.12 C274.354936,4.68842105 274.105446,5.25824561 273.85876,5.82947368 C273.061233,7.67649123 272.265109,9.52491228 271.470386,11.3733333 C271.289576,11.7915789 271.114372,12.2112281 270.919546,12.6687719 M268.208797,17.7873684 C267.593483,17.7873684 267.578065,17.7564912 267.805128,17.24 C268.870366,14.8301754 269.928595,12.4189474 270.996635,10.0105263 C271.89648,7.97824561 272.806137,5.95017544 273.708785,3.91789474 C273.913423,3.45894737 274.105446,2.99438596 274.304477,2.53263158 C274.333911,2.46526316 274.354936,2.38385965 274.406796,2.33894737 C274.511918,2.24631579 274.638065,2.10877193 274.750195,2.11298246 C274.859522,2.11859649 275.010898,2.25473684 275.062758,2.37122807 C275.888317,4.23508772 276.699859,6.10736842 277.51841,7.9754386 C278.108496,9.32421053 278.702786,10.6729825 279.295674,12.0203509 C280.083389,13.8126316 280.872506,15.6035088 281.660221,17.3957895 C281.782162,17.6736842 281.706474,17.7831579 281.399518,17.7873684 C281.288789,17.7887719 281.178061,17.7803509 281.067332,17.7887719 C280.817842,17.8084211 280.679081,17.6764912 280.585172,17.4617544 C280.044144,16.2308772 279.494706,15.002807 278.960685,13.7691228 C278.892006,13.6105263 278.802301,13.565614 278.649524,13.565614 C276.007455,13.5684211 273.365387,13.5670175 270.723318,13.5670175 C270.573344,13.5670175 270.482238,13.6049123 270.412156,13.7691228 C269.900562,14.9817544 269.36514,16.1859649 268.852145,17.3985965 C268.713383,17.7284211 268.493328,17.8449123 268.208797,17.7873684" id="Fill-7"></path>
                <path d="M248.303157,7.82849123 C248.303157,9.42287719 248.366231,11.0214737 248.28774,12.6130526 C248.175609,14.8755088 247.124388,16.5877895 245.010733,17.5295439 C244.06043,17.9534035 243.033036,18.1021754 241.995832,17.9927018 C240.508704,17.8341053 239.191174,17.2909474 238.203026,16.112 C237.590515,15.3835789 237.161617,14.5541053 237.025659,13.6039298 C236.935955,12.9793684 236.864472,12.3435789 236.861668,11.7134035 C236.844849,8.81796491 236.853259,5.92252632 236.853259,3.02708772 C236.853259,2.51340351 237.153207,2.29305263 237.639572,2.47691228 C237.744694,2.51621053 237.825988,2.65796491 237.883455,2.77164912 C237.919898,2.84603509 237.893267,2.95270175 237.893267,3.04533333 C237.893267,5.99550877 237.89607,8.94568421 237.891865,11.8958596 C237.889062,12.7702456 237.989979,13.6193684 238.36141,14.4221754 C238.863193,15.5056842 239.656515,16.2705965 240.783423,16.6874386 C241.750547,17.0453333 242.744301,17.1084912 243.738055,16.8783158 C245.335911,16.5077895 246.441796,15.5562105 246.987029,13.9814737 C247.225306,13.2937544 247.302395,12.586386 247.300993,11.8649825 C247.29819,8.8965614 247.29819,5.92673684 247.305198,2.95831579 C247.305198,2.80954386 247.361263,2.5442807 247.428542,2.53305263 C247.67663,2.48533333 247.945742,2.49936842 248.198035,2.5442807 C248.255502,2.55410526 248.305961,2.77866667 248.305961,2.90498246 C248.312969,4.54568421 248.311567,6.18778947 248.311567,7.82849123 L248.303157,7.82849123" id="Fill-9"></path>
                <path d="M212.576642,9.36687719 C212.757452,9.13389474 212.927049,8.92336842 213.089638,8.70582456 C214.543126,6.75494737 215.996614,4.80547368 217.447299,2.85178947 C217.720617,2.48266667 218.194367,2.31705263 218.63588,2.45880702 C218.818091,2.51775439 218.846124,2.65810526 218.701756,2.85178947 C218.242022,3.47073684 217.778083,4.08687719 217.314145,4.70301754 C216.229284,6.13880702 215.143023,7.57319298 214.058163,9.00898246 C213.78064,9.37529825 213.497512,9.736 213.23821,10.1149474 C213.147105,10.2482807 213.075622,10.4279298 213.075622,10.5865263 C213.064409,12.7802105 213.068613,14.9738947 213.068613,17.1675789 C213.067212,17.2784561 213.068613,17.3893333 213.055999,17.498807 C213.037778,17.6798596 212.932656,17.7809123 212.747641,17.7865263 C212.656535,17.7893333 212.564027,17.7893333 212.47152,17.7865263 C212.143539,17.7795088 212.04122,17.6798596 212.039819,17.3570526 C212.038417,16.378807 212.039819,15.4019649 212.039819,14.4251228 C212.039819,13.1437193 212.044023,11.8623158 212.03281,10.5809123 C212.031409,10.4293333 211.978147,10.2524912 211.888443,10.1317895 C210.582125,8.34652632 209.264595,6.5682807 207.95127,4.78863158 C207.481724,4.15424561 207.009376,3.52126316 206.546839,2.88126316 C206.335193,2.58652632 206.402471,2.49670175 206.765493,2.44196491 C207.302316,2.36336842 207.620486,2.60336842 207.924639,3.02722807 C209.401955,5.08617544 210.907303,7.12266667 212.404242,9.16757895 C212.446291,9.22512281 212.498151,9.27564912 212.576642,9.36687719" id="Fill-11"></path>
                <path d="M302.40081,10.5670175 L302.40081,17.2603509 C302.40081,17.7333333 301.971912,17.9873684 301.558432,17.7501754 C301.481342,17.7066667 301.428081,17.6014035 301.394442,17.5129825 C301.367811,17.44 301.387433,17.3487719 301.387433,17.2659649 C301.387433,12.7578947 301.383229,8.24842105 301.394442,3.74035088 C301.394442,3.44842105 301.308942,3.38947368 301.037026,3.3922807 C299.831626,3.4077193 298.624825,3.39929825 297.418023,3.39929825 C297.008748,3.39929825 296.930257,3.32070175 296.930257,2.92070175 C296.930257,2.5277193 297.008748,2.4477193 297.425031,2.4477193 C300.288557,2.44631579 303.152083,2.44631579 306.015609,2.44631579 L306.375827,2.44631579 C306.821545,2.44631579 306.916856,2.54035088 306.907044,2.9754386 C306.900036,3.29964912 306.801922,3.39789474 306.466933,3.39789474 C305.223689,3.40070175 303.981847,3.40631579 302.738603,3.39368421 C302.473695,3.39087719 302.393802,3.46526316 302.395204,3.73473684 C302.405015,6.01263158 302.40081,8.28912281 302.40081,10.5670175" id="Fill-13"></path>
                <path d="M183.907464,7.32870175 C183.907464,7.95185965 183.918677,8.57501754 183.901857,9.19817544 C183.894849,9.45922807 183.969135,9.54764912 184.239649,9.54484211 C185.264239,9.53080702 186.290231,9.53221053 187.314821,9.54063158 C188.482377,9.55045614 189.443894,8.71957895 189.593868,7.55607018 C189.750851,6.33782456 188.724859,5.20519298 187.424148,5.18835088 C186.335083,5.17291228 185.246018,5.18835088 184.156953,5.17992982 C183.96493,5.17852632 183.901857,5.2402807 183.90466,5.43115789 C183.91307,6.06414035 183.907464,6.6957193 183.907464,7.32870175 M181.048143,10.2227368 C181.048143,7.88308772 181.046741,5.5434386 181.048143,3.20519298 C181.048143,2.70694737 181.179896,2.57501754 181.685883,2.57361404 C183.636949,2.57361404 185.588015,2.56378947 187.539082,2.57642105 C189.445296,2.58905263 190.931021,3.37922807 191.870112,5.0634386 C192.935349,6.97361404 192.485427,9.30764912 190.797867,10.6830877 C190.384386,11.0199298 189.910636,11.2837895 189.446697,11.5504561 C189.272895,11.6501053 189.24206,11.7301053 189.330362,11.8915088 C190.251232,13.5995789 191.1707,15.3076491 192.091569,17.0171228 C192.125208,17.0816842 192.160249,17.1462456 192.191085,17.2122105 C192.341059,17.5350175 192.167257,17.8325614 191.80844,17.8381754 C191.066979,17.8465965 190.325518,17.8409825 189.582655,17.8395789 C189.380821,17.8395789 189.253273,17.7469474 189.159364,17.5574737 C188.256715,15.7497544 187.342854,13.9476491 186.443009,12.1385263 C186.347698,11.9490526 186.242576,11.8662456 186.028127,11.8718596 C185.414214,11.8830877 184.800301,11.8830877 184.186388,11.8718596 C183.960725,11.8662456 183.887841,11.9406316 183.887841,12.1694035 C183.896251,13.8297544 183.893447,15.4901053 183.892046,17.1504561 C183.892046,17.7104561 183.761694,17.8409825 183.196838,17.8409825 L181.685883,17.8409825 C181.188305,17.8409825 181.048143,17.7034386 181.048143,17.2122105 C181.046741,14.882386 181.048143,12.5525614 181.048143,10.2227368" id="Fill-16"></path>
                <path d="M171.903221,7.85487719 L171.821927,7.84224561 C171.119711,9.41978947 170.417495,10.9987368 169.70687,12.5987368 C169.804984,12.621193 169.848434,12.6394386 169.890483,12.6394386 C171.201005,12.6408421 172.510126,12.6408421 173.819246,12.6422456 C174.039302,12.6422456 174.035097,12.5341754 173.962212,12.3755789 C173.789812,12.0050526 173.623018,11.6317193 173.453421,11.258386 C172.936221,10.1243509 172.420422,8.98891228 171.903221,7.85487719 M171.87659,15.0534737 C170.896852,15.0534737 169.915713,15.0590877 168.935975,15.0492632 C168.715919,15.0478596 168.591174,15.1110175 168.497265,15.3243509 C168.188907,16.0331228 167.853918,16.7306667 167.535748,17.4352281 C167.411003,17.7103158 167.192349,17.8338246 166.906417,17.8380351 C166.300914,17.8450526 165.696812,17.8478596 165.092711,17.8380351 C164.694648,17.8310175 164.530658,17.5615439 164.697452,17.2008421 C165.808943,14.7966316 166.92604,12.3952281 168.034728,9.99101754 C169.078941,7.72715789 170.116145,5.46049123 171.156153,3.19382456 C171.231841,3.02821053 171.307529,2.86259649 171.387422,2.69978947 C171.493946,2.4794386 171.65233,2.33066667 171.915836,2.33347368 C172.173735,2.33487719 172.341931,2.46961404 172.445651,2.69698246 C172.784845,3.44224561 173.121236,4.18891228 173.46043,4.93417544 C174.137416,6.41487719 174.818607,7.89557895 175.494192,9.37768421 C176.39684,11.3552281 177.296685,13.3355789 178.199334,15.3145263 C178.467045,15.9025965 178.736157,16.4906667 179.01368,17.0745263 C179.257563,17.589614 179.110392,17.8394386 178.545536,17.8408421 C177.996098,17.8422456 177.44666,17.8324211 176.897221,17.8436491 C176.556626,17.8506667 176.34498,17.6836491 176.210424,17.3973333 C175.888049,16.704 175.56147,16.0120702 175.261522,15.3103158 C175.170416,15.098386 175.047072,15.0492632 174.843836,15.0506667 C173.854287,15.0562807 172.866139,15.0534737 171.87659,15.0534737" id="Fill-18"></path>
                <path d="M197.623655,11.3772632 C197.623655,9.40392982 197.61945,7.432 197.629261,5.45866667 C197.630663,5.23691228 197.564786,5.17796491 197.350337,5.18077193 C196.370599,5.18919298 195.38946,5.18498246 194.409722,5.18357895 C194.013061,5.18217544 193.888316,5.07410526 193.881308,4.68673684 C193.870095,4.15480702 193.870095,3.62287719 193.881308,3.09094737 C193.888316,2.72463158 194.014463,2.60673684 194.380287,2.57585965 C194.443361,2.57024561 194.507836,2.57445614 194.572311,2.57445614 C197.540959,2.57305263 200.509607,2.57305263 203.478255,2.57445614 C204.107585,2.57445614 204.215511,2.68252632 204.215511,3.30849123 C204.215511,3.72954386 204.216912,4.152 204.215511,4.57445614 C204.212708,5.04884211 204.080955,5.18357895 203.618417,5.18357895 C202.683531,5.18498246 201.748646,5.19480702 200.815161,5.17796491 C200.532033,5.17235088 200.46055,5.25936842 200.46055,5.53585965 C200.468959,9.38849123 200.467558,13.2425263 200.466156,17.0965614 C200.466156,17.2242807 200.461951,17.3534035 200.440927,17.4783158 C200.401681,17.7098947 200.248904,17.834807 200.020438,17.837614 C199.370083,17.8446316 198.719728,17.8460351 198.069372,17.837614 C197.805866,17.8334035 197.641876,17.6705965 197.633466,17.4053333 C197.61945,17.0207719 197.623655,16.634807 197.623655,16.2488421 L197.623655,11.3772632" id="Fill-20"></path>
                <path d="M18.0828227,15.5299649 C18.1444943,15.3236491 18.206166,15.1173333 18.2678376,14.9110175 C18.3995906,14.4661053 18.5327453,14.0197895 18.6644983,13.5734737 C18.7612106,13.2422456 18.8551197,12.9110175 18.951832,12.581193 C19.0835851,12.1348772 19.219543,11.6899649 19.3498944,11.2422456 C19.4802458,10.7959298 19.6049907,10.3482105 19.7353421,9.90049123 C19.8320544,9.57066667 19.9371765,9.24224561 20.0352905,8.91242105 C20.1642402,8.46891228 20.2889851,8.02540351 20.4179349,7.58189474 C20.5104423,7.26189474 20.605753,6.94329825 20.7010637,6.62329825 C20.8033826,6.27803509 20.9057014,5.93417544 21.0066186,5.58891228 C21.1047326,5.25908772 21.2000433,4.92785965 21.2967556,4.59663158 C21.3962712,4.25978947 21.49859,3.92294737 21.5981056,3.58470175 C21.7088342,3.20715789 21.815358,2.82821053 21.9260866,2.45066667 C21.9681354,2.30891228 22.1251177,2.21347368 22.3059277,2.21768421 C22.4755247,2.22189474 22.6114826,2.31873684 22.6535315,2.46049123 C22.7852845,2.90680702 22.922644,3.3517193 23.0529954,3.79803509 C23.1973631,4.29207018 23.3361243,4.78750877 23.4818936,5.28154386 C23.6248596,5.76715789 23.7762355,6.25136842 23.9206031,6.73698246 C24.0958066,7.33347368 24.264002,7.92996491 24.4406071,8.52505263 C24.5821715,9.00785965 24.7335473,9.48785965 24.8765134,9.97066667 C25.0068648,10.4127719 25.1316097,10.8576842 25.2605595,11.301193 C25.3698864,11.6717193 25.4820167,12.0408421 25.5927453,12.4099649 C25.7090804,12.8015439 25.8254155,13.1931228 25.9417506,13.5861053 C26.0566841,13.9734737 26.1716176,14.3608421 26.2865511,14.749614 C26.3538293,14.978386 26.4197058,15.2071579 26.4883855,15.4359298 C26.4995986,15.4724211 26.5178197,15.5047018 26.5332376,15.5397895 C26.543049,15.538386 26.5528604,15.5369825 26.5626718,15.5355789 C26.6131304,15.3629474 26.663589,15.1889123 26.712646,15.0162807 C26.8149649,14.6625965 26.9158821,14.3103158 27.0167993,13.9566316 C27.0980937,13.6689123 27.1779865,13.381193 27.2606825,13.0934737 C27.3630014,12.7369825 27.4681235,12.3804912 27.5690407,12.024 C27.6685563,11.6717193 27.7624654,11.3166316 27.8619809,10.9629474 C27.9432754,10.6766316 28.0329796,10.3903158 28.114274,10.104 C28.2151912,9.75031579 28.3091003,9.39663158 28.4086158,9.04294737 C28.487107,8.76224561 28.5712047,8.48294737 28.6510975,8.20364912 C28.7534163,7.84294737 28.8529319,7.48224561 28.9552507,7.12154386 C29.0519631,6.78329825 29.150077,6.44505263 29.2467894,6.10540351 C29.3477066,5.75312281 29.4472222,5.3994386 29.5481394,5.04575439 C29.6336387,4.75101754 29.7219412,4.45768421 29.8060389,4.16294737 C29.888735,3.87522807 29.9672261,3.58610526 30.0471189,3.29838596 C30.1087905,3.07663158 30.1662573,2.85207018 30.2377403,2.63312281 C30.272781,2.52224561 30.359682,2.44645614 30.4830252,2.44224561 C30.6736466,2.43663158 30.864268,2.43663158 31.0534878,2.44364912 C31.214675,2.44926316 31.2833548,2.53066667 31.2469124,2.69066667 C31.1866424,2.9517193 31.1123562,3.20996491 31.0408731,3.46961404 C30.9567755,3.77136842 30.8670713,4.07312281 30.7801703,4.37347368 C30.6638352,4.77487719 30.5475001,5.17487719 30.4339682,5.57487719 C30.333051,5.9285614 30.2363387,6.28224561 30.1354215,6.63592982 C30.0527254,6.92224561 29.9630212,7.20715789 29.8803252,7.49487719 C29.7976291,7.78259649 29.7205396,8.07031579 29.6378436,8.35803509 C29.538328,8.70750877 29.4332059,9.05417544 29.3336903,9.40364912 C29.2201584,9.80084211 29.1108314,10.1994386 28.9972996,10.5966316 C28.9174068,10.8801404 28.8333091,11.1636491 28.7534163,11.4485614 C28.6496959,11.8078596 28.5487786,12.1685614 28.4464598,12.5292632 C28.3679686,12.8015439 28.2894775,13.0738246 28.2109863,13.3461053 C28.1240854,13.6436491 28.0371844,13.941193 27.9516851,14.2401404 C27.8339484,14.6471579 27.71481,15.0541754 27.5998765,15.4625965 C27.4695251,15.9173333 27.3433786,16.3734737 27.2144288,16.829614 C27.1331344,17.1131228 27.0462335,17.3952281 26.9635374,17.6787368 C26.9481195,17.7292632 26.942513,17.7825965 26.9242918,17.8317193 C26.8500056,18.0310175 26.7084411,18.0478596 26.4449351,18.0113684 C26.3384114,17.9959298 26.2767397,17.9327719 26.2459039,17.8232982 C26.1463883,17.469614 26.0398646,17.1187368 25.9361441,16.7664561 C25.8254155,16.3931228 25.7132853,16.018386 25.6025567,15.6450526 C25.5016395,15.3082105 25.4021239,14.9713684 25.3012067,14.6331228 C25.2002895,14.2920702 25.096569,13.9524211 24.9970534,13.6113684 C24.8681036,13.1678596 24.7419571,12.7229474 24.6116057,12.2808421 C24.5148934,11.9538246 24.4125745,11.629614 24.3158622,11.3025965 C24.214945,10.9615439 24.1196343,10.6190877 24.0187171,10.2766316 C23.924808,9.95382456 23.8266941,9.63242105 23.7313834,9.30821053 C23.6290645,8.96014035 23.5281473,8.61066667 23.4258285,8.26259649 C23.3305178,7.93978947 23.2324038,7.61698246 23.1370931,7.29417544 C23.0347743,6.94610526 22.9338571,6.59663158 22.8315382,6.2485614 C22.7348259,5.92575439 22.6381136,5.60294737 22.5428029,5.28014035 C22.4713198,5.04154386 22.4012384,4.80154386 22.3297554,4.56154386 C22.3255505,4.54470175 22.3171408,4.52926316 22.2778952,4.504 C22.2526659,4.57277193 22.2246333,4.64014035 22.2036089,4.70891228 C22.0452249,5.25066667 21.8910459,5.79242105 21.7312603,6.33277193 C21.5882942,6.81978947 21.4369184,7.304 21.2911491,7.78961404 C21.1383716,8.30470175 20.9869958,8.81978947 20.8342184,9.33487719 C20.6674247,9.90189474 20.5006309,10.4675088 20.3352388,11.0345263 C20.161437,11.626807 19.99184,12.2190877 19.8166365,12.8113684 C19.6722688,13.301193 19.5222946,13.789614 19.3779269,14.2794386 C19.2335593,14.7650526 19.0947981,15.2534737 18.951832,15.7390877 C18.8214806,16.178386 18.688326,16.6162807 18.556573,17.0555789 C18.4780818,17.3194386 18.398189,17.5832982 18.3225011,17.8499649 C18.2986734,17.9313684 18.2580262,17.9875088 18.1711253,17.9973333 C18.0702081,18.0085614 17.9678892,18.0254035 17.8683736,18.018386 C17.7744646,18.0113684 17.6987767,17.9566316 17.6693425,17.8569825 C17.5964578,17.6099649 17.5207699,17.3629474 17.4492869,17.1159298 C17.3651892,16.8254035 17.2838948,16.5334737 17.2011987,16.2429474 C17.0988799,15.8822456 16.9979627,15.5215439 16.8956438,15.1608421 C16.8171527,14.8885614 16.7372599,14.6162807 16.6587687,14.344 C16.5718678,14.0464561 16.4849668,13.7475088 16.3994675,13.4499649 C16.2817308,13.0429474 16.163994,12.6345263 16.0476589,12.2275088 C15.9481433,11.8766316 15.8542343,11.5257544 15.7533171,11.1762807 C15.6720226,10.8927719 15.5837201,10.6120702 15.5024257,10.3285614 C15.4015084,9.97487719 15.3061977,9.62119298 15.2052805,9.26891228 C15.128191,8.99522807 15.0496998,8.72294737 14.969807,8.45066667 C14.8843077,8.1517193 14.7960052,7.85417544 14.7105059,7.55522807 C14.5941707,7.15242105 14.476434,6.74821053 14.3615005,6.344 C14.2619849,5.99031579 14.1652726,5.63663158 14.0643554,5.28294737 C13.9872658,5.01066667 13.9059714,4.73838596 13.8274802,4.46610526 C13.7405793,4.16435088 13.6536784,3.86259649 13.5667774,3.56084211 C13.496696,3.31803509 13.4238114,3.07522807 13.35373,2.83101754 C13.3523284,2.82821053 13.3495251,2.824 13.3495251,2.81978947 C13.3060746,2.5685614 13.2864519,2.43522807 13.6256458,2.4394386 C13.7391777,2.44224561 13.8541112,2.44505263 13.967643,2.4394386 C14.2283458,2.424 14.3082386,2.504 14.3825249,2.76084211 C14.5493186,3.33908772 14.7147107,3.91733333 14.8787012,4.49698246 C15.0090526,4.95592982 15.1337975,5.4162807 15.2641489,5.87382456 C15.3776808,6.26680702 15.4982208,6.65698246 15.6117526,7.0485614 C15.7561203,7.55101754 15.8920782,8.05487719 16.0364459,8.55733333 C16.1808136,9.06259649 16.3293861,9.56785965 16.4751554,10.0731228 C16.574671,10.4225965 16.6685801,10.7748772 16.7680957,11.1243509 C16.8816276,11.5159298 17.0007659,11.9075088 17.1128962,12.3004912 C17.226428,12.6920702 17.335755,13.0864561 17.4478852,13.4794386 C17.5488025,13.8317193 17.6539246,14.1825965 17.7548418,14.5348772 C17.8375378,14.8225965 17.916029,15.1117193 17.9973234,15.3994386 C18.0099381,15.4443509 18.0309625,15.4878596 18.047782,15.5313684 C18.0603967,15.5313684 18.0716097,15.5299649 18.0828227,15.5299649" id="Fill-22"></path>
                <path d="M49.2234918,7.19957895 C49.2234918,8.40378947 49.2248934,9.60659649 49.2206885,10.810807 C49.2206885,10.9174737 49.2473194,10.9525614 49.3594497,10.9525614 C50.8395688,10.9483509 52.3182863,10.9469474 53.7984054,10.9525614 C54.3408354,10.9539649 54.8650443,10.8627368 55.3612206,10.653614 C56.1026818,10.3406316 56.6997753,9.84659649 57.1370832,9.16308772 C57.4566544,8.6634386 57.6430709,8.11747368 57.7005376,7.53501754 C57.7313734,7.22484211 57.6949311,6.90624561 57.6725051,6.59185965 C57.650079,6.27607018 57.5463585,5.9757193 57.4160071,5.68940351 C57.1118539,5.01992982 56.6437101,4.48659649 56.0241906,4.09080702 C55.3387945,3.65010526 54.5833171,3.448 53.7731761,3.448 C52.3000651,3.44659649 50.8283558,3.44940351 49.3566464,3.44519298 C49.2403113,3.44519298 49.2206885,3.48449123 49.2206885,3.58835088 C49.2248934,4.7925614 49.2234918,5.99536842 49.2234918,7.19957895 M55.1663943,11.7357193 C55.4327036,12.2101053 55.6920048,12.6718596 55.9513059,13.133614 C56.7446274,14.5413333 57.5379488,15.9504561 58.3312702,17.3581754 C58.3536962,17.3988772 58.3747207,17.4381754 58.3915402,17.4816842 C58.4560151,17.6529123 58.3677125,17.7946667 58.1855009,17.8002807 C57.9570355,17.8058947 57.7285702,17.8044912 57.5015065,17.7988772 C57.3921795,17.7974737 57.3052785,17.7469474 57.250615,17.6487018 C56.9562732,17.1181754 56.6619313,16.5904561 56.3675894,16.0599298 C55.8195529,15.0704561 55.2715164,14.0795789 54.7248815,13.0887018 C54.5160389,12.7111579 54.3071963,12.3322105 54.101157,11.9532632 C54.0647147,11.8887018 54.0254691,11.8564211 53.9427731,11.8564211 C52.4178019,11.8648421 50.891429,11.8676491 49.3664578,11.8718596 C49.1968608,11.8732632 49.1968608,11.8718596 49.1968608,12.0388772 C49.1968608,13.8185263 49.1968608,15.5967719 49.1954592,17.3764211 C49.1954592,17.448 49.1912543,17.5209825 49.1786397,17.5911579 C49.1576152,17.6992281 49.0384769,17.7876491 48.8927076,17.7960702 C48.7455366,17.8058947 48.5955624,17.8072982 48.4483915,17.7988772 C48.2858027,17.7904561 48.1792789,17.6683509 48.1722708,17.5041404 C48.1708692,17.4592281 48.1722708,17.4129123 48.1722708,17.368 L48.1722708,2.87677193 C48.1722708,2.82764912 48.1708692,2.77852632 48.1722708,2.72940351 C48.1778773,2.568 48.2801961,2.45852632 48.4399817,2.44308772 C48.4848338,2.43887719 48.5310876,2.4402807 48.5773413,2.4402807 C50.3153599,2.4402807 52.0533786,2.44168421 53.7927989,2.43887719 C54.3464419,2.43887719 54.8916752,2.5034386 55.4186873,2.67326316 C56.3900155,2.9834386 57.2029597,3.52519298 57.8294874,4.33922807 C58.1616732,4.77150877 58.4083597,5.24729825 58.569547,5.76378947 C58.7489553,6.33501754 58.810627,6.92589474 58.7601684,7.52098246 C58.690087,8.33361404 58.4279825,9.08168421 57.9598388,9.7525614 C57.4538511,10.4781754 56.7964876,11.0269474 55.996158,11.4016842 C55.7648894,11.5097544 55.5196045,11.5883509 55.2799261,11.6809825 C55.2448854,11.6950175 55.212648,11.7132632 55.1663943,11.7357193" id="Fill-24"></path>
                <path d="M38.7677677,3.87003509 L38.7313254,3.87003509 C38.7131042,3.90091228 38.6934814,3.93178947 38.6794652,3.96547368 C38.5168763,4.33880702 38.3556891,4.71354386 38.1931003,5.0882807 C37.9758479,5.59214035 37.757194,6.09459649 37.5399416,6.59845614 C37.2736323,7.22021053 37.0087246,7.84196491 36.7410137,8.4637193 C36.4775076,9.07424561 36.2097967,9.68336842 35.9462906,10.2938947 C35.6197113,11.050386 35.2973369,11.8082807 34.9707576,12.5661754 C34.9104876,12.7065263 34.9146925,12.7163509 35.0716748,12.7163509 L42.3755581,12.7163509 C42.4148037,12.7163509 42.4540492,12.7107368 42.5129176,12.7065263 C41.2584606,9.74933333 40.013815,6.80898246 38.7677677,3.87003509 M38.6920798,13.5598596 C37.3493202,13.5598596 36.0065607,13.5612632 34.6638011,13.5584561 C34.558679,13.5570526 34.5012122,13.5851228 34.4577618,13.6875789 C34.148002,14.418807 33.8312341,15.1472281 33.5144662,15.8742456 C33.2803943,16.4117895 33.036511,16.9451228 32.8136522,17.4868772 C32.7155382,17.7226667 32.5627608,17.8209123 32.3146726,17.8040702 C32.1618952,17.7942456 32.0091177,17.8040702 31.8577419,17.8012632 C31.699358,17.7984561 31.6362847,17.7240702 31.6881449,17.5738947 C31.759628,17.3675789 31.8507338,17.1668772 31.9390363,16.9675789 C32.3118694,16.1198596 32.6875057,15.2721404 33.0617403,14.4258246 C33.375705,13.7170526 33.6924729,13.0096842 34.0050359,12.3009123 C34.3330169,11.5570526 34.6567929,10.8117895 34.9847739,10.0679298 C35.2496816,9.47003509 35.5187941,8.87354386 35.7837018,8.27564912 C36.1242974,7.50512281 36.4634914,6.73319298 36.804087,5.96266667 C37.1629037,5.15003509 37.5245237,4.33880702 37.8833405,3.52617544 C38.0571423,3.13178947 38.2309442,2.73740351 38.4033445,2.34301754 C38.4650161,2.19845614 38.5701382,2.12547368 38.7271205,2.11424561 C38.8953159,2.10301754 39.0102494,2.16477193 39.0775275,2.32336842 C39.2765587,2.78512281 39.4797947,3.24407018 39.6816291,3.70582456 C39.9325205,4.27985965 40.1848136,4.85529825 40.435705,5.42933333 C40.7202355,6.0805614 41.0019627,6.73319298 41.2864932,7.38442105 C41.5485976,7.9837193 41.8121036,8.58161404 42.0756097,9.18091228 C42.4063939,9.93880702 42.7371781,10.6981053 43.0693639,11.456 C43.3749188,12.1563509 43.683277,12.8552982 43.9888318,13.5542456 C44.3378372,14.3514386 44.6840393,15.1486316 45.031643,15.9444211 C45.2601084,16.4679298 45.491377,16.9900351 45.7198424,17.5121404 C45.7983335,17.6917895 45.7352603,17.7942456 45.540434,17.7998596 C45.3512142,17.8054737 45.1605928,17.8040702 44.9699714,17.8012632 C44.7821533,17.7970526 44.6882442,17.6651228 44.6223677,17.5163509 C44.1794532,16.5170526 43.7407437,15.5163509 43.3006325,14.5170526 C43.174486,14.2293333 43.053946,13.9402105 42.9207913,13.6552982 C42.9011686,13.613193 42.8366937,13.5879298 42.7890383,13.5612632 C42.7680139,13.5514386 42.7371781,13.5598596 42.7105472,13.5598596 L38.6920798,13.5598596" id="Fill-26"></path>
                <path d="M5.64267381,13.9385263 C5.64267381,12.853614 5.63426405,11.7672982 5.64828033,10.682386 C5.65108358,10.4283509 5.5767973,10.2346667 5.42962636,10.0381754 C4.78627913,9.1834386 4.15554656,8.3202807 3.51920746,7.45992982 C2.89688465,6.61782456 2.27456184,5.7757193 1.65223903,4.93361404 C1.1294318,4.22624561 0.606624578,3.51747368 0.0866206075,2.80870175 C0.0305554894,2.73291228 -0.0325177685,2.64449123 0.0193424658,2.54764912 C0.0683994441,2.45501754 0.167915029,2.43957895 0.267430613,2.43957895 C0.456650387,2.44098246 0.647271789,2.44378947 0.83789319,2.43957895 C1.00048203,2.43536842 1.12382529,2.50273684 1.21773437,2.63185965 C1.55973159,3.09922807 1.90313043,3.568 2.24512766,4.03677193 C2.8141886,4.81431579 3.38184793,5.59185965 3.95090887,6.36940351 C4.51296168,7.13852632 5.07641612,7.90624561 5.63846893,8.67396491 C5.78844312,8.87887719 5.93701568,9.08519298 6.0883915,9.28870175 C6.16267778,9.38975439 6.17529244,9.38975439 6.25098035,9.28870175 C6.58737105,8.83817544 6.92236014,8.38764912 7.25734922,7.93712281 C7.76894342,7.24940351 8.28053762,6.56168421 8.79353345,5.87396491 C9.30933254,5.18063158 9.82653325,4.48729825 10.3423323,3.79396491 C10.6254612,3.41361404 10.9099917,3.03326316 11.1917189,2.65150877 C11.3024475,2.50273684 11.4412087,2.42975439 11.6304284,2.43817544 C11.8042303,2.44659649 11.9808354,2.43817544 12.1546373,2.44098246 C12.2036943,2.44238596 12.2555545,2.44659649 12.3004066,2.46203509 C12.4251515,2.50554386 12.4686019,2.60378947 12.392914,2.71185965 C12.2247187,2.95887719 12.0453103,3.2002807 11.8659019,3.43887719 C11.3276768,4.15466667 10.7866484,4.86764912 10.2470216,5.58203509 C9.70038674,6.30484211 9.15235021,7.02905263 8.60711693,7.75185965 C8.1137439,8.40729825 7.62037086,9.06133333 7.12839944,9.71677193 C7.00645781,9.87677193 6.88731944,10.0395789 6.76257455,10.1967719 C6.69950129,10.2739649 6.67146873,10.3539649 6.67146873,10.4550175 C6.67427199,12.770807 6.67427199,15.0865965 6.67427199,17.402386 C6.67427199,17.6985263 6.57335477,17.8009825 6.2790129,17.802386 C6.18089895,17.802386 6.08138336,17.808 5.98326941,17.7967719 C5.71135358,17.7658947 5.64968195,17.6732632 5.64407544,17.4458947 C5.63846893,17.2409825 5.64267381,17.0346667 5.64267381,16.8297544 L5.64267381,13.9385263" id="Fill-28"></path>
                <path d="M94.0725027,10.0578246 C94.0753059,13.8374737 97.0229295,16.9869474 100.995143,17.0009825 C104.748703,17.013614 107.924792,14.0662456 107.938808,10.1013333 C107.951423,6.29361404 104.930914,3.1525614 101.010561,3.13992982 C97.1995346,3.12729825 94.1215597,6.16168421 94.0725027,10.0578246 M93.1109859,10.0971228 C93.1292071,5.70273684 96.5659988,2.17852632 100.997946,2.1757193 C105.390648,2.17150877 108.891915,5.62694737 108.898923,10.0788772 C108.907333,14.5125614 105.46073,17.9539649 101.010561,17.965193 C96.6038428,17.9750175 93.1390185,14.5420351 93.1109859,10.0971228" id="Fill-30"></path>
                <path d="M85.3770832,16.9713684 C85.8480302,16.9938246 86.311969,16.9278596 86.7674981,16.824 C87.48373,16.6625965 88.1607163,16.3875088 88.7774326,15.9875088 C89.1530689,15.7432982 89.5076808,15.469614 89.8707024,15.2099649 C89.9141529,15.1790877 89.9548001,15.1425965 89.9996522,15.1145263 C90.1552329,15.0176842 90.2393306,15.0275088 90.3710836,15.1594386 C90.4677959,15.2562807 90.5560985,15.3615439 90.6612206,15.4485614 C90.7803589,15.5454035 90.7789573,15.7489123 90.6584173,15.861193 C90.0178733,16.4562807 89.3170594,16.9643509 88.5041151,17.298386 C88.1551098,17.4415439 87.8033012,17.5832982 87.4402795,17.6857544 C87.0996839,17.781193 86.7450721,17.8331228 86.3932635,17.8878596 C86.1269541,17.9285614 85.8578416,17.9510175 85.588729,17.9664561 C85.4107223,17.9762807 85.2313139,17.9664561 85.0533071,17.9552281 C84.8038174,17.9397895 84.5515243,17.9285614 84.3062394,17.8892632 C83.9292015,17.8275088 83.5535652,17.7517193 83.1807322,17.6647018 C82.6032615,17.5327719 82.0622331,17.2955789 81.5408275,17.0176842 C80.6549986,16.5447018 79.8855049,15.9187368 79.2379527,15.1510175 C78.769809,14.5952281 78.385763,13.9832982 78.0914211,13.3166316 C77.8965948,12.8759298 77.7438174,12.4225965 77.6302855,11.9524211 C77.4424673,11.1734737 77.3723859,10.3861053 77.4256478,9.58750877 C77.4620901,9.02470175 77.5559992,8.47312281 77.7087767,7.9285614 C77.9330371,7.12715789 78.2806409,6.38189474 78.7389732,5.69136842 C79.0627493,5.20294737 79.4425904,4.75803509 79.8686853,4.35382456 C80.3648616,3.88505263 80.90589,3.47382456 81.5099917,3.15803509 C81.9010459,2.95452632 82.3089196,2.78049123 82.7209982,2.62470175 C83.0447743,2.504 83.3853699,2.41838596 83.7231622,2.34259649 C84.142249,2.2485614 84.5697455,2.21487719 84.9986436,2.18259649 C85.468189,2.14750877 85.9321279,2.184 86.3946651,2.24575439 C86.7660965,2.2962807 87.1403311,2.34821053 87.5005495,2.44926316 C87.894407,2.55873684 88.2812563,2.71031579 88.6582942,2.8717193 C89.3857391,3.18470175 90.0178733,3.65066667 90.610762,4.1685614 C90.7817606,4.31873684 90.7943752,4.48715789 90.6415978,4.65136842 C90.5434838,4.75663158 90.4439682,4.86189474 90.3402478,4.96294737 C90.222511,5.08084211 90.1215938,5.08364912 89.9898408,4.98119298 C89.6604582,4.73136842 89.3422887,4.46470175 89.0002914,4.23592982 C88.5489672,3.93417544 88.064004,3.69277193 87.544,3.53277193 C87.2258305,3.43592982 86.9076609,3.33347368 86.5810816,3.27312281 C85.927923,3.15242105 85.2677562,3.1285614 84.6047862,3.20014035 C84.1366424,3.25066667 83.6769085,3.34470175 83.2297892,3.49207018 C82.4757133,3.73908772 81.7833091,4.10540351 81.158183,4.59803509 C80.5582863,5.06961404 80.050897,5.62540351 79.6332118,6.26119298 C79.2631821,6.82540351 78.9786516,7.4317193 78.7908334,8.07873684 C78.5329339,8.96715789 78.4404264,9.87522807 78.5385404,10.7987368 C78.588999,11.2759298 78.6801048,11.7447018 78.8258741,12.2008421 C79.048733,12.8941754 79.3697058,13.538386 79.794399,14.1306667 C80.1391995,14.6120702 80.5372619,15.0443509 80.9941926,15.4204912 C81.5436307,15.8738246 82.1477324,16.2401404 82.812104,16.4997895 C83.2816494,16.6836491 83.7624078,16.8282105 84.2655922,16.8857544 C84.635622,16.9278596 85.0056518,16.9643509 85.3756816,17.0022456 C85.3756816,16.9924211 85.3770832,16.981193 85.3770832,16.9713684" id="Fill-32"></path>
                <path d="M68.0106325,10.4590877 L68.0106325,17.3390877 C68.0106325,17.6590877 67.9181251,17.7503158 67.594349,17.7517193 C67.4962351,17.7517193 67.3967195,17.7531228 67.2986055,17.7503158 C67.1135906,17.7447018 67.0014604,17.6352281 66.9930506,17.4513684 C66.991649,17.4092632 66.991649,17.3685614 66.991649,17.3264561 L66.991649,3.50891228 C66.991649,3.33487719 66.991649,3.33487719 66.8178471,3.33487719 L62.9255263,3.33487719 C62.8876824,3.33487719 62.8498384,3.33768421 62.8119944,3.33487719 C62.6087584,3.31803509 62.527464,3.23522807 62.5218575,3.03031579 C62.5190542,2.90821053 62.5176526,2.78610526 62.5218575,2.66540351 C62.5288656,2.51101754 62.6353893,2.40435088 62.7895684,2.3917193 C62.8316172,2.38750877 62.8736661,2.38891228 62.9157149,2.38891228 L72.1258122,2.38891228 C72.4131459,2.38891228 72.5140631,2.49136842 72.5140631,2.78329825 L72.5140631,2.97698246 C72.5098582,3.21978947 72.4005313,3.33207018 72.156648,3.33487719 C71.8903387,3.33768421 71.6240294,3.33487719 71.3577201,3.33487719 L68.1620083,3.33487719 C68.0106325,3.33487719 68.0106325,3.3362807 68.0106325,3.48785965 L68.0106325,10.4590877" id="Fill-34"></path>
                <path d="M75.306106,17.0861754 C75.2962946,17.5872281 74.9318714,17.9717895 74.4427032,17.970386 C73.9437236,17.9689825 73.5330467,17.5984561 73.5330467,17.0847719 C73.5330467,16.6272281 73.8736422,16.2202105 74.4441048,16.218807 C74.9416827,16.218807 75.2892865,16.5752982 75.306106,17.0861754" id="Fill-36"></path>
                <path d="M124.51432,4.62905263 C124.466665,4.75817544 124.426017,4.85782456 124.392378,4.9602807 C124.127471,5.75326316 123.865366,6.54624561 123.597655,7.33922807 C123.332748,8.128 123.05943,8.91396491 122.793121,9.70273684 C122.517,10.5153684 122.246486,11.3294035 121.973169,12.1434386 C121.769932,12.7497544 121.5695,13.3574737 121.364862,13.9637895 C121.158823,14.5757193 120.948579,15.1876491 120.742539,15.7995789 C120.553319,16.3595789 120.368305,16.9195789 120.179085,17.4795789 C120.141241,17.5932632 120.103397,17.7097544 120.051537,17.8178246 C119.971644,17.9834386 119.81326,17.9848421 119.660482,17.9764211 C119.538541,17.970807 119.441828,17.9202807 119.39978,17.7939649 C119.249805,17.3532632 119.09843,16.9125614 118.948455,16.4718596 C118.804088,16.0465965 118.661122,15.6199298 118.518156,15.1932632 C118.387804,14.8058947 118.257453,14.4185263 118.127101,14.0311579 C117.984135,13.6044912 117.839768,13.1778246 117.6954,12.7511579 C117.549631,12.3174737 117.403861,11.8837895 117.258092,11.4501053 C117.127741,11.0627368 116.995988,10.6767719 116.865636,10.2894035 C116.72267,9.86694737 116.581106,9.44308772 116.43814,9.02063158 C116.295174,8.59396491 116.150806,8.16589474 116.00784,7.73922807 C115.877489,7.35326316 115.747137,6.96589474 115.616786,6.57852632 C115.472418,6.14905263 115.32805,5.71817544 115.182281,5.28870175 C115.115003,5.09080702 115.047725,4.89431579 114.979045,4.69782456 C114.97484,4.68378947 114.965029,4.6725614 114.928586,4.65712281 C114.900554,4.7834386 114.869718,4.90835088 114.844489,5.03326316 C114.78562,5.33501754 114.728154,5.63677193 114.670687,5.93992982 C114.618827,6.21080702 114.571171,6.48449123 114.519311,6.75677193 C114.466049,7.02764912 114.408582,7.29852632 114.355321,7.57080702 C114.30346,7.84308772 114.254403,8.11536842 114.202543,8.38764912 C114.150683,8.66414035 114.097421,8.93922807 114.044159,9.2157193 C113.989496,9.49782456 113.936234,9.78133333 113.880169,10.0648421 C113.811489,10.4227368 113.740006,10.7792281 113.671326,11.1371228 C113.618064,11.413614 113.569007,11.6901053 113.515745,11.965193 C113.462484,12.2374737 113.406419,12.5083509 113.354558,12.7792281 C113.301296,13.0515088 113.250838,13.3237895 113.198978,13.5960702 C113.142912,13.8865965 113.085446,14.1771228 113.030782,14.4676491 C112.978922,14.7399298 112.928463,15.0122105 112.876603,15.2844912 C112.806522,15.6381754 112.735039,15.9918596 112.666359,16.3455439 C112.613097,16.6206316 112.565442,16.8971228 112.51218,17.173614 C112.485549,17.3069474 112.461721,17.4416842 112.421074,17.5722105 C112.384632,17.6858947 112.292124,17.7490526 112.170183,17.7518596 C111.987971,17.7546667 111.804358,17.7546667 111.622146,17.7490526 C111.463762,17.7448421 111.397886,17.6788772 111.417508,17.5174737 C111.441336,17.322386 111.48759,17.1301053 111.525434,16.9364211 C111.578696,16.6655439 111.634761,16.3932632 111.690826,16.122386 C111.742686,15.8739649 111.794546,15.6255439 111.846407,15.3757193 C111.90107,15.1132632 111.954332,14.8494035 112.008995,14.5855439 C112.060856,14.3287018 112.114118,14.0718596 112.167379,13.8164211 C112.220641,13.5553684 112.273903,13.2957193 112.327165,13.0360702 C112.381828,12.7764211 112.43509,12.5153684 112.488352,12.2557193 C112.541614,11.9918596 112.594876,11.728 112.649539,11.4641404 C112.7014,11.2115088 112.754662,10.9588772 112.80512,10.7062456 C112.861185,10.4353684 112.914447,10.1630877 112.970512,9.89221053 C113.03779,9.56940351 113.107872,9.24659649 113.17515,8.92378947 C113.229813,8.65992982 113.280272,8.39607018 113.333534,8.13221053 C113.386796,7.87536842 113.442861,7.61992982 113.496123,7.36308772 C113.549385,7.1034386 113.599843,6.84238596 113.653105,6.58273684 C113.703564,6.33010526 113.756825,6.07747368 113.808686,5.82484211 C113.863349,5.56098246 113.918013,5.29712281 113.971275,5.03326316 C114.024536,4.77782456 114.077798,4.52098246 114.13106,4.26414035 C114.184322,4.00449123 114.237584,3.74484211 114.290846,3.48378947 C114.342706,3.22835088 114.395968,2.97150877 114.447828,2.71466667 C114.470254,2.608 114.506696,2.50133333 114.515106,2.39185965 C114.523516,2.27115789 114.659474,2.17150877 114.760391,2.16449123 C115.079962,2.1434386 115.148642,2.19396491 115.248158,2.49431579 C115.424763,3.03326316 115.609778,3.56940351 115.787784,4.10835088 C115.962988,4.63185965 116.131183,5.15817544 116.306387,5.68168421 C116.464771,6.15887719 116.630163,6.63326316 116.789948,7.10905263 C116.96375,7.62975439 117.13615,8.15045614 117.309952,8.67115789 C117.469738,9.14554386 117.632327,9.61712281 117.790711,10.0915088 C117.93648,10.525193 118.078044,10.9602807 118.222412,11.3939649 C118.368181,11.8276491 118.515352,12.2613333 118.661122,12.6950175 C118.804088,13.1244912 118.945652,13.5553684 119.09002,13.9862456 C119.232986,14.4129123 119.377354,14.8395789 119.521721,15.2662456 C119.579188,15.4374737 119.636655,15.6087018 119.703933,15.808 C119.73617,15.7658947 119.759998,15.7448421 119.769809,15.7195789 C119.970242,15.1244912 120.167872,14.5294035 120.369706,13.9343158 C120.560328,13.3715088 120.755154,12.8115088 120.944374,12.2487018 C121.120979,11.725193 121.289174,11.1988772 121.465779,10.6753684 C121.639581,10.1588772 121.821793,9.64519298 121.995595,9.12870175 C122.170798,8.60519298 122.340395,8.0802807 122.515599,7.55677193 C122.735654,6.90414035 122.961316,6.25291228 123.181372,5.60168421 C123.370592,5.03887719 123.557008,4.47466667 123.744826,3.91185965 C123.917227,3.39957895 124.089627,2.88589474 124.262027,2.37361404 C124.292863,2.27957895 124.34192,2.19817544 124.448444,2.18133333 C124.751195,2.13501754 124.913784,2.14764912 124.975456,2.48168421 C125.039931,2.83536842 125.118422,3.18764912 125.189905,3.54133333 C125.257183,3.87957895 125.323059,4.21782456 125.391739,4.55607018 C125.459017,4.87887719 125.531902,5.2002807 125.59918,5.52308772 C125.652442,5.77992982 125.701499,6.03677193 125.753359,6.29361404 C125.802416,6.5434386 125.854276,6.79185965 125.904735,7.0402807 C125.9608,7.31536842 126.016865,7.59045614 126.074332,7.86554386 C126.124791,8.11115789 126.175249,8.35536842 126.227109,8.60098246 C126.281773,8.86905263 126.336436,9.1357193 126.392501,9.40378947 C126.444362,9.65642105 126.496222,9.90905263 126.548082,10.1616842 C126.602746,10.4255439 126.657409,10.688 126.710671,10.9518596 C126.762531,11.2044912 126.814392,11.4585263 126.866252,11.7111579 C126.920915,11.9820351 126.97698,12.2529123 127.031644,12.5237895 C127.083504,12.773614 127.135364,13.0220351 127.187225,13.2704561 C127.241888,13.5343158 127.29515,13.7981754 127.349813,14.0620351 C127.403075,14.3188772 127.454935,14.5743158 127.508197,14.8311579 C127.561459,15.090807 127.616123,15.3504561 127.669385,15.6115088 C127.721245,15.8669474 127.773105,16.1237895 127.824965,16.3806316 C127.88103,16.6557193 127.937095,16.930807 127.991759,17.2058947 C128.012783,17.3097544 128.035209,17.413614 128.050627,17.5188772 C128.07025,17.6578246 128.007177,17.7420351 127.867014,17.7476491 C127.669385,17.7560702 127.471755,17.7560702 127.274125,17.7490526 C127.149381,17.7462456 127.051267,17.6437895 127.026037,17.5188772 C126.923718,16.9981754 126.818596,16.4774737 126.717679,15.9567719 C126.633581,15.5202807 126.559295,15.082386 126.475198,14.6472982 C126.375682,14.1364211 126.27056,13.6269474 126.171044,13.1174737 C126.086947,12.685193 126.011259,12.2515088 125.928563,11.8192281 C125.813629,11.2269474 125.693089,10.6360702 125.579557,10.0437895 C125.480042,9.52589474 125.387534,9.00659649 125.288019,8.48870175 C125.205323,8.05922807 125.115618,7.6325614 125.032922,7.20449123 C124.948825,6.768 124.870334,6.33150877 124.787637,5.89501754 C124.71195,5.49642105 124.633458,5.09782456 124.556369,4.69922807 C124.553566,4.68659649 124.540951,4.67396491 124.51432,4.62905263" id="Fill-38"></path>
                <polygon id="Fill-40" points="144.849839 19.9146667 145.784725 19.9146667 145.784725 0.000280701755 144.849839 0.000280701755"></polygon>
            </g>
            <path d="M122,23.3053771 L130.54588,22.5364443 L128.1922,11.8261083 L122,23.3053771 Z M128.880832,11.7010866 L133.495232,33.1116557 L144.823472,20.5300628 L128.880832,11.7010866 Z M159.36628,6.16707154 L166.89604,33.3595103 L183.47232,10.6622415 L159.36628,6.16707154 Z M133.807208,33.8006644 L166.175208,33.4156368 L158.645448,6.22319802 L133.807208,33.8006644 Z M133.920244,34.504266 L163.190324,57.8613016 L166.288244,34.1192383 L133.920244,34.504266 Z M187.957472,4 L159.506112,5.47416206 L191.844712,11.5043913 L187.957472,4 Z M162.813416,66.5538063 L177.305936,74.9677273 L166.957136,34.4376719 L162.813416,66.5538063 Z" id="Combined-Shape-Copy"></path>
        </g>
    </g>
</svg>