<?xml version="1.0" encoding="UTF-8" standalone="no"?>
<svg width="17px" height="21px" viewBox="0 0 17 21" version="1.1" xmlns="http://www.w3.org/2000/svg" xmlns:xlink="http://www.w3.org/1999/xlink">
    <!-- Generator: Sketch 39.1 (31720) - http://www.bohemiancoding.com/sketch -->
    <title>Fill 1</title>
    <desc>Created with Sketch.</desc>
    <defs></defs>
    <g id="新版首页" stroke="none" stroke-width="1" fill="none" fill-rule="evenodd">
        <g transform="translate(-277.000000, -1153.000000)" id="Fill-1" fill="#003569">
            <path d="M293.594499,1164.48528 L293.594499,1164.48528 C293.379162,1164.48528 293.200425,1164.65576 293.18978,1164.87358 C292.989346,1168.99172 289.618985,1172.27953 285.504881,1172.27963 C281.249145,1172.27963 277.810452,1168.79628 277.810452,1164.48528 C277.810452,1160.18916 281.259486,1156.69369 285.500014,1156.69102 L285.500014,1159.30995 C285.500014,1159.56681 285.792199,1159.71069 285.991618,1159.55191 L289.759602,1156.55115 C289.914312,1156.42791 289.914312,1156.19047 289.759602,1156.06723 L285.991618,1153.06636 C285.792199,1152.90769 285.500014,1153.05146 285.500014,1153.30832 L285.500014,1155.86994 C284.353682,1155.87056 283.241515,1156.09845 282.194234,1156.54714 C281.181422,1156.98104 280.271919,1157.60217 279.490969,1158.39326 C278.710019,1159.18435 278.096858,1160.10567 277.668517,1161.13163 C277.224866,1162.19406 277,1163.32241 277,1164.48528 C277,1165.64814 277.224866,1166.77649 277.668517,1167.83892 C278.096858,1168.86478 278.710019,1169.7862 279.490969,1170.57729 C280.271919,1171.36838 281.181422,1171.98951 282.194234,1172.42341 C283.243036,1172.87282 284.356825,1173.10061 285.504881,1173.10061 C286.652835,1173.10061 287.766726,1172.87272 288.815427,1172.42341 C289.828238,1171.98951 290.737741,1171.36838 291.518691,1170.57729 C292.299641,1169.7862 292.912904,1168.86488 293.341245,1167.83892 C293.730149,1166.90744 293.95096,1165.92522 293.999522,1164.91353 C294.010674,1164.6801 293.825245,1164.48528 293.594499,1164.48528"></path>
        </g>
    </g>
</svg>