<?xml version="1.0" encoding="UTF-8"?>
<!-- Generator: Adobe Illustrator 19.0.0, SVG Export Plug-In . SVG Version: 6.00 Build 0)  -->
<svg version="1.1" id="图层_1" xmlns="http://www.w3.org/2000/svg" xmlns:xlink="http://www.w3.org/1999/xlink" x="0px" y="0px" viewBox="0 0 80 80" style="enable-background:new 0 0 80 80;" xml:space="preserve">
<style type="text/css">
	.st0{fill:#221714;}
	.st1{fill:#231815;}
</style>
<g id="XMLID_307_">
	<path fill="rgb(0,0,0)" id="XMLID_331_" d="M10,60.8c-0.1,0.2-0.2,0.4-0.3,0.6c-0.1,0.4-0.3,0.7-0.4,1.1C9.1,63,9,63.5,8.8,64c0,0.1-0.1,0.3-0.2,0.4   c0,0.1-0.1,0.1-0.2,0.1c-0.1,0-0.1,0-0.2-0.1c-0.1-0.2-0.1-0.5-0.2-0.7c-0.1-0.2-0.1-0.4-0.2-0.6c-0.1-0.2-0.1-0.4-0.2-0.6   c-0.1-0.2-0.1-0.4-0.2-0.6c-0.1-0.2-0.1-0.4-0.2-0.6c-0.1-0.2-0.1-0.4-0.2-0.6C7,60.2,7,59.9,6.9,59.7c0-0.2-0.1-0.3-0.1-0.5   c0,0,0,0,0-0.1c0-0.2,0-0.2,0.2-0.2c0.2,0,0.4,0,0.5,0c0.3,0,0.3,0.1,0.3,0.2C7.9,59.6,8,60,8.1,60.4c0.1,0.3,0.2,0.7,0.3,1   c0.1,0.2,0.1,0.4,0.2,0.6c0,0,0,0,0,0.1c0.1-0.2,0.1-0.4,0.2-0.6c0.2-0.5,0.4-0.9,0.6-1.4c0.2-0.4,0.3-0.8,0.5-1.3   c0-0.1,0.1-0.1,0.2-0.1c0.1,0,0.2,0,0.2,0.1c0.1,0.2,0.2,0.4,0.2,0.6c0.1,0.3,0.2,0.6,0.3,0.9c0.2,0.4,0.3,0.9,0.5,1.3   c0.1,0.1,0.1,0.3,0.2,0.4c0,0,0,0,0.1,0.1c0-0.2,0.1-0.4,0.1-0.5c0.1-0.3,0.2-0.6,0.2-0.9c0.1-0.2,0.1-0.5,0.2-0.7   c0.1-0.3,0.1-0.6,0.2-0.9c0-0.1,0-0.1,0.1-0.2c0-0.1,0.1-0.1,0.2-0.1c0.2,0,0.4,0,0.7,0c0.2,0,0.2,0.1,0.2,0.3   c-0.1,0.4-0.2,0.8-0.3,1.2c-0.1,0.4-0.2,0.7-0.3,1.1c-0.1,0.3-0.2,0.6-0.3,0.9c-0.1,0.3-0.2,0.6-0.3,0.9c-0.1,0.3-0.2,0.6-0.3,0.9   c0,0.1,0,0.1-0.1,0.2c0,0.1-0.1,0.1-0.2,0.1c-0.1,0-0.2,0-0.2-0.1c-0.1-0.4-0.3-0.7-0.4-1.1c-0.1-0.3-0.3-0.6-0.4-1   c-0.2-0.5-0.4-0.9-0.5-1.4C10.1,60.9,10.1,60.9,10,60.8C10,60.8,10,60.8,10,60.8z"/>
	<path fill="rgb(0,0,0)" id="XMLID_330_" d="M3.6,60.8c0.1-0.1,0.2-0.3,0.3-0.4c0.3-0.5,0.6-0.9,0.9-1.4c0.1-0.1,0.1-0.1,0.2-0.1c0.2,0,0.5,0,0.7,0   c0.1,0,0.1,0,0.2,0.1c0.1,0.1,0,0.1,0,0.2c-0.6,0.8-1.2,1.7-1.7,2.5c0,0.1-0.1,0.1-0.1,0.2c0,0.8,0,1.5,0,2.3c0,0.2,0,0.2-0.2,0.2   c-0.2,0-0.4,0-0.6,0c-0.2,0-0.2,0-0.2-0.2c0-0.2,0-0.4,0-0.6c0-0.6,0-1.2,0-1.8c0,0,0-0.1,0-0.1c-0.5-0.7-1-1.4-1.4-2.1   c-0.1-0.2-0.2-0.3-0.3-0.5c-0.1-0.1,0-0.2,0.1-0.2c0.3,0,0.5,0,0.8,0c0.1,0,0.1,0.1,0.2,0.1c0.2,0.3,0.4,0.6,0.6,0.8   C3.2,60.1,3.4,60.4,3.6,60.8C3.6,60.7,3.6,60.7,3.6,60.8z"/>
	<g id="XMLID_315_">
		<path fill="rgb(0,0,0)" id="XMLID_327_" d="M19.5,61.7c0-0.9,0-1.7,0-2.6c0-0.2,0-0.2,0.2-0.2c0.7,0,1.4,0,2.2,0c0.7,0,1.3,0.3,1.6,0.9    c0.4,0.7,0.2,1.6-0.4,2.1c-0.2,0.1-0.3,0.2-0.5,0.3c-0.1,0-0.1,0.1,0,0.1c0.3,0.6,0.7,1.3,1,1.9c0,0,0,0,0,0.1    c0.1,0.1,0,0.2-0.1,0.2c-0.3,0-0.5,0-0.8,0c-0.1,0-0.1,0-0.2-0.1c-0.3-0.7-0.7-1.3-1-2c0-0.1-0.1-0.1-0.2-0.1c-0.2,0-0.5,0-0.7,0    c-0.1,0-0.1,0-0.1,0.1c0,0.6,0,1.2,0,1.8c0,0.2,0,0.3-0.3,0.3c-0.2,0-0.4,0-0.6,0c-0.2,0-0.2-0.1-0.2-0.2    C19.5,63.4,19.5,62.5,19.5,61.7z M20.6,60.6c0,0.2,0,0.5,0,0.7c0,0.1,0,0.1,0.1,0.1c0.4,0,0.8,0,1.1,0c0.4,0,0.8-0.3,0.8-0.7    c0.1-0.4-0.3-0.9-0.8-0.9c-0.4,0-0.8,0-1.2,0c-0.1,0-0.1,0-0.1,0.1C20.6,60.2,20.6,60.4,20.6,60.6z"/>
		<path fill="rgb(0,0,0)" id="XMLID_324_" d="M16.2,63.5c-0.4,0-0.7,0-1.1,0c-0.1,0-0.1,0-0.2,0.1c-0.1,0.3-0.2,0.5-0.4,0.8c0,0.1-0.1,0.1-0.2,0.1    c-0.2,0-0.4,0-0.7,0c-0.1,0-0.2-0.1-0.1-0.2c0.4-0.9,0.8-1.8,1.2-2.7c0.4-0.8,0.8-1.7,1.2-2.5c0-0.1,0.1-0.1,0.1-0.2    c0-0.1,0.1-0.1,0.2-0.1c0.1,0,0.2,0.1,0.2,0.1c0.1,0.3,0.2,0.5,0.4,0.8c0.2,0.5,0.5,1.1,0.7,1.6c0.3,0.7,0.7,1.5,1,2.2    c0.1,0.2,0.2,0.4,0.3,0.6c0.1,0.2,0,0.3-0.2,0.3c-0.2,0-0.4,0-0.6,0c-0.1,0-0.2-0.1-0.3-0.2c-0.1-0.3-0.2-0.5-0.4-0.8    c0-0.1-0.1-0.1-0.2-0.1C16.9,63.5,16.5,63.5,16.2,63.5z M16.2,60.8C16.2,60.8,16.2,60.8,16.2,60.8c-0.3,0.6-0.5,1.2-0.8,1.7    c0,0,0.1,0,0.1,0c0.5,0,1,0,1.4,0c0.1,0,0.1,0,0.1-0.1c-0.1-0.1-0.1-0.3-0.2-0.4C16.6,61.6,16.4,61.2,16.2,60.8z"/>
		<path fill="rgb(0,0,0)" id="XMLID_323_" d="M25.7,62.1c0-0.7,0-1.5,0-2.2c0-0.1,0-0.1-0.1-0.1c-0.4,0-0.7,0-1.1,0c-0.1,0-0.2,0-0.2-0.2    c0-0.2,0-0.4,0-0.6c0-0.1,0-0.2,0.2-0.2c0,0,0,0,0.1,0c1.1,0,2.2,0,3.3,0c0.2,0,0.3,0,0.3,0.3c0,0.2,0,0.3,0,0.5    c0,0.2,0,0.2-0.2,0.2c-0.3,0-0.7,0-1,0c-0.1,0-0.1,0-0.1,0.1c0,1.4,0,2.8,0,4.3c0,0,0,0.1,0,0.1c0,0.1-0.1,0.1-0.2,0.1    c-0.2,0-0.5,0-0.7,0c-0.1,0-0.2-0.1-0.2-0.2c0-0.1,0-0.3,0-0.4C25.7,63.3,25.7,62.7,25.7,62.1z"/>
	</g>
	<g id="XMLID_308_">
		<path fill="rgb(0,0,0)" id="XMLID_314_" d="M45,59.8c0.3-0.3,0.6-0.6,1-0.7c0.7-0.2,1.4-0.2,2,0.2c0.2,0.1,0.3,0.3,0.4,0.4c0,0,0.1,0.1,0.1,0.1    c0.1-0.1,0.2-0.2,0.3-0.3c0.5-0.5,1.2-0.7,1.9-0.7c0.8,0.1,1.4,0.4,1.7,1.4c0.1,0.3,0.1,0.6,0.1,1c0,0.9,0,1.8,0,2.7    c0,0.2-0.1,0.3-0.3,0.3c-0.3,0-0.3,0-0.3-0.3c0-0.9,0-1.8,0-2.7c0-0.4,0-0.7-0.2-1.1c-0.2-0.4-0.5-0.7-1-0.7    c-0.8-0.1-1.4,0.2-2,0.8c0,0,0,0.1,0,0.2c0.1,0.3,0.1,0.7,0.1,1c0,0.9,0,1.7,0,2.6c0,0.2-0.1,0.3-0.3,0.3c-0.3,0-0.3,0-0.3-0.3    c0-1,0-1.9,0-2.9c0-0.3-0.1-0.7-0.3-1c-0.3-0.4-0.7-0.6-1.2-0.6c-0.4,0-0.8,0.1-1.1,0.4c-0.2,0.1-0.3,0.3-0.4,0.4    C45,60.4,45,60.5,45,60.6c0,1.1,0,2.3,0,3.4c0,0.1,0,0.1,0,0.2c0,0.1-0.1,0.1-0.1,0.1c0,0,0,0,0,0c-0.4,0-0.4,0-0.4-0.4    c0-1.5,0-3.1,0-4.6c0-0.2,0.1-0.3,0.4-0.3c0,0,0.1,0.1,0.1,0.1c0,0.1,0,0.2,0,0.3C45,59.6,45,59.7,45,59.8z"/>
		<path fill="rgb(0,0,0)" id="XMLID_311_" d="M37.6,61.7c0-1.1,0.6-2.1,1.6-2.5c0.4-0.2,0.8-0.3,1.3-0.2c1,0.1,1.7,0.6,2.1,1.5c0.2,0.5,0.3,1,0.3,1.5    c-0.1,1.1-0.8,2-1.9,2.4c-1.2,0.3-2.3-0.1-3-1.2C37.7,62.7,37.6,62.3,37.6,61.7z M40.3,63.9c0.5,0,1-0.2,1.4-0.7    c0.5-0.6,0.7-1.3,0.5-2.1c-0.2-0.8-0.8-1.5-1.7-1.6c-0.8-0.1-1.4,0.2-1.9,0.8c-0.5,0.6-0.6,1.4-0.3,2.1    C38.5,63.3,39.3,63.9,40.3,63.9z"/>
		<path fill="rgb(0,0,0)" id="XMLID_310_" d="M34.3,59c0.7,0,1.3,0.2,1.8,0.7c0,0,0,0,0,0c0.2,0.2,0.2,0.3,0,0.5c-0.1,0.1-0.2,0.1-0.3,0    c-0.2-0.2-0.4-0.3-0.6-0.4c-1.1-0.5-2.5,0-2.9,1.2c-0.3,0.9-0.1,1.9,0.7,2.5c0.4,0.4,1,0.5,1.6,0.5c0.6-0.1,1-0.3,1.4-0.7    c0,0,0.1-0.1,0.1-0.1c0.1-0.1,0.1-0.1,0.2,0c0.3,0.2,0.3,0.3,0.1,0.5c-0.3,0.4-0.7,0.6-1.2,0.7c-1.4,0.4-2.8-0.3-3.3-1.7    c-0.4-1.1-0.2-2.1,0.6-2.9c0.4-0.4,0.9-0.7,1.5-0.8C34,59,34.2,59,34.3,59z"/>
		<path fill="rgb(0,0,0)" id="XMLID_309_" d="M29,64c0-0.3,0.2-0.5,0.5-0.5c0.3,0,0.5,0.2,0.5,0.5c0,0.3-0.2,0.5-0.5,0.5C29.3,64.5,29,64.2,29,64z"/>
	</g>
</g>
<g id="XMLID_303_">
	<polygon fill="rgb(0,0,0)" id="XMLID_306_" points="17.2,37.5 13.3,37.5 13.3,35.6 11.4,35.6 11.4,37.5 6.6,37.5 6.6,35.6 4.6,35.6    4.6,37.5 0.8,37.5 0.8,39.5 4.6,39.5 4.6,42.4 6.6,42.4 6.6,39.5 11.4,39.5 11.4,42.4 13.3,42.4 13.3,39.5 17.2,39.5  "/>
	<path fill="rgb(0,0,0)" id="XMLID_305_" d="M17.2,51v-1h-1.9v1h0c0,0.4-0.2,0.7-0.6,0.9C14.5,52,14.3,52,14.3,52H7.4c0,0,0,0,0,0H4.6   c-0.4,0-0.7-0.2-0.9-0.6c-0.2-0.5,0-1.1,0.5-1.3l2.6-1c0,0,0,0,0,0l9.4-3.9h0v-1.9H1.8v1.9h9.4l-7.6,3.1l0,0c0,0,0,0-0.1,0   C2,49.1,1.4,50.8,2,52.2c0.5,1.1,1.5,1.7,2.6,1.7v0h9.6v0c0.4,0,0.8-0.1,1.2-0.3C16.5,53.2,17.2,52.1,17.2,51L17.2,51z"/>
	<path fill="rgb(0,0,0)" id="XMLID_304_" d="M33.5,35.6H19.1v1.9h14.4v5.8h-2.9v-3.8h-1.9v3.8h-2.9v-3.8h-1.9v3.8H21v-3.8h-1.9v14.4H21   v-8.7h2.9v4.8h1.9v-4.8h2.9v4.8h1.9v-4.8h2.9V51c0,0.5-0.4,1-1,1l-1,0v1.9h1c1.6,0,2.9-1.3,2.9-2.9V37.5v-1.9H33.5z"/>
</g>
<g id="XMLID_295_">
	<polygon fill="rgb(0,0,0)" id="XMLID_302_" points="33.5,28.6 37.6,21.1 38.9,28.1  "/>
	<polygon fill="rgb(0,0,0)" id="XMLID_301_" points="38.2,21 41.3,35.1 48.6,26.8  "/>
	<polygon fill="rgb(0,0,0)" id="XMLID_300_" points="58.6,17.5 63.5,35.3 74.4,20.4  "/>
	<polygon fill="rgb(0,0,0)" id="XMLID_299_" points="41.6,35.6 62.9,35.4 58,17.5  "/>
	<polygon fill="rgb(0,0,0)" id="XMLID_298_" points="41.7,36.3 61,51.6 63,36  "/>
	<polygon fill="rgb(0,0,0)" id="XMLID_297_" points="58.8,16.9 80,20.9 77.4,16  "/>
	<polygon fill="rgb(0,0,0)" id="XMLID_296_" points="70.5,62.7 63.7,36.1 61.1,57.2  "/>
</g>
</svg>